<svg id="Capa_1" enable-background="new 0 0 512 512" height="512" viewBox="0 0 512 512" width="512" xmlns="http://www.w3.org/2000/svg"><g><g fill="#5f55af"><path d="m45 390.5h-30c-8.291 0-15-6.709-15-15v-30c0-8.291 6.709-15 15-15s15 6.709 15 15v15h15c8.291 0 15 6.709 15 15s-6.709 15-15 15z"/><path d="m15 300.5c-8.291 0-15-6.709-15-15v-30c0-8.291 6.709-15 15-15s15 6.709 15 15v30c0 8.291-6.709 15-15 15z"/><path d="m15 210.5c-8.291 0-15-6.709-15-15v-30c0-8.291 6.709-15 15-15s15 6.709 15 15v30c0 8.291-6.709 15-15 15z"/><path d="m15 120.5c-8.291 0-15-6.709-15-15v-30c0-8.291 6.709-15 15-15h30c8.291 0 15 6.709 15 15s-6.709 15-15 15h-15v15c0 8.291-6.709 15-15 15z"/><path d="m135 90.5h-30c-8.291 0-15-6.709-15-15s6.709-15 15-15h30c8.291 0 16 6.709 16 15s-7.709 15-16 15z"/><path d="m226 90.5h-30c-8.291 0-15-6.709-15-15s6.709-15 15-15h30c8.291 0 15 6.709 15 15s-6.709 15-15 15z"/></g><path d="m406 120.5c-8.291 0-15-6.709-15-15v-15h-15c-8.291 0-15-6.709-15-15s6.709-15 15-15h30c8.291 0 15 6.709 15 15v30c0 8.291-6.709 15-15 15z" fill="#453d83"/><path d="m316 60.5h-15-15c-8.291 0-15 6.709-15 15s6.709 15 15 15h15 15c8.291 0 15-6.709 15-15s-6.709-15-15-15z" fill="#5f55af"/><path d="m331 75.5c0-8.291-6.709-15-15-15h-15v30h15c8.291 0 15-6.709 15-15z" fill="#453d83"/></g><g><path d="m497 149.5h-180-180c-8.291 0-15 6.709-15 15v272c0 8.291 6.709 15 15 15h180 180c8.291 0 15-6.709 15-15v-272c0-8.291-6.709-15-15-15z" fill="#edf5ff"/><path d="m512 436.5v-272c0-8.291-6.709-15-15-15h-180v302h180c8.291 0 15-6.709 15-15z" fill="#d5e8fe"/><path d="m317 179.5h-165v219.789l165-2.454 130.605-1.94 34.395-55.606v-159.789z" fill="#6aa9ff"/><path d="m482 339.289v-159.789h-165v217.335l130.605-1.94z" fill="#4895ff"/><path d="m417.605 274.895c-5.859-5.859-15.352-5.859-21.211 0l-79.394 79.394-30 30-49.395-49.395c-5.859-5.859-15.352-5.859-21.211 0l-64.394 64.395v22.211h165 165v-82.211z" fill="#97de3d"/><path d="m482 339.289-64.395-64.395c-5.859-5.859-15.352-5.859-21.211 0l-79.394 79.395v67.211h165z" fill="#59c36a"/><path d="m257 300.5c-24.814 0-45-20.186-45-45s20.186-45 45-45 45 20.186 45 45-20.186 45-45 45z" fill="#fed843"/></g></svg>